<svg xmlns="http://www.w3.org/2000/svg" width="800" height="500" viewBox="0 0 800 500">
  <defs>
    <linearGradient id="bg" x1="0" y1="0" x2="1" y2="1">
      <stop offset="0%" stop-color="#0F172A"/>
      <stop offset="100%" stop-color="#1E293B"/>
    </linearGradient>
    <linearGradient id="green" x1="0" y1="0" x2="1" y2="1">
      <stop offset="0%" stop-color="#10B981"/>
      <stop offset="100%" stop-color="#34D399"/>
    </linearGradient>
  </defs>
  <rect width="800" height="500" fill="url(#bg)" rx="12"/>
  <!-- Header -->
  <rect x="30" y="20" width="740" height="50" rx="8" fill="#1E293B" stroke="#334155" stroke-width="1"/>
  <rect x="55" y="35" width="100" height="20" rx="4" fill="#334155"/>
  <rect x="170" y="35" width="100" height="20" rx="4" fill="#10B981" opacity="0.2"/>
  <circle cx="740" cy="45" r="12" fill="#10B981" opacity="0.2"/>
  <!-- Sidebar navigation -->
  <rect x="30" y="85" width="180" height="390" rx="10" fill="#0F172A" stroke="#334155" stroke-width="1"/>
  <rect x="50" y="105" width="140" height="8" rx="4" fill="#10B981" opacity="0.6"/>
  <rect x="50" y="130" width="140" height="8" rx="4" fill="#334155"/>
  <rect x="50" y="155" width="140" height="8" rx="4" fill="#334155"/>
  <rect x="50" y="180" width="140" height="8" rx="4" fill="#334155"/>
  <rect x="50" y="220" width="140" height="8" rx="4" fill="#334155"/>
  <rect x="50" y="245" width="140" height="8" rx="4" fill="#334155"/>
  <!-- Main content: patient cards -->
  <rect x="230" y="85" width="540" height="120" rx="10" fill="#1E293B" stroke="#334155" stroke-width="1"/>
  <circle cx="260" cy="145" r="22" fill="#0F172A"/>
  <text x="250" y="150" fill="#10B981" font-family="sans-serif" font-size="16" font-weight="bold">AK</text>
  <rect x="300" y="110" width="100" height="10" rx="4" fill="white" opacity="0.8"/>
  <rect x="300" y="130" width="160" height="8" rx="4" fill="#94A3B8"/>
  <rect x="300" y="155" width="80" height="22" rx="6" fill="#10B981" opacity="0.2"/>
  <text x="310" y="170" fill="#10B981" font-family="sans-serif" font-size="10">Stable</text>
  <rect x="230" y="220" width="540" height="120" rx="10" fill="#1E293B" stroke="#334155" stroke-width="1"/>
  <circle cx="260" cy="280" r="22" fill="#0F172A"/>
  <text x="250" y="285" fill="#F59E0B" font-family="sans-serif" font-size="16" font-weight="bold">MN</text>
  <rect x="300" y="245" width="100" height="10" rx="4" fill="white" opacity="0.8"/>
  <rect x="300" y="265" width="160" height="8" rx="4" fill="#94A3B8"/>
  <rect x="300" y="290" width="80" height="22" rx="6" fill="#F59E0B" opacity="0.2"/>
  <text x="310" y="305" fill="#F59E0B" font-family="sans-serif" font-size="10">Review</text>
  <rect x="230" y="355" width="540" height="120" rx="10" fill="#1E293B" stroke="#334155" stroke-width="1"/>
  <circle cx="260" cy="415" r="22" fill="#0F172A"/>
  <text x="250" y="420" fill="#EF4444" font-family="sans-serif" font-size="16" font-weight="bold">BW</text>
  <rect x="300" y="380" width="100" height="10" rx="4" fill="white" opacity="0.8"/>
  <rect x="300" y="400" width="160" height="8" rx="4" fill="#94A3B8"/>
  <rect x="300" y="425" width="80" height="22" rx="6" fill="#EF4444" opacity="0.2"/>
  <text x="310" y="440" fill="#EF4444" font-family="sans-serif" font-size="10">Urgent</text>
</svg>